<?xml version="1.0" encoding="UTF-8"?>
<svg id="Logo_skalliert" xmlns="http://www.w3.org/2000/svg" width="356.96" height="66.13" viewBox="0 0 356.96 66.13">
  <defs>
    <style>
      .cls-1, .cls-2 {
        fill: #004c97;
      }

      .cls-3 {
        fill: #014c96;
      }

      .cls-2 {
        stroke: #004c97;
        stroke-miterlimit: 22.93;
        stroke-width: .24px;
      }

      .cls-4 {
        fill: #4c81b5;
      }
    </style>
  </defs>
  <g>
    <path class="cls-1" d="M138.19,18.93h8.17v2.46h-5.07v7.06h4.92v2.54h-4.92v10.15h-3.09v-22.2Z"/>
    <path class="cls-1" d="M156.59,37.57c0,1.11-.16,1.9-.4,2.38-.48,1.03-1.67,1.51-3.49,1.51-2.93,0-4.12-1.11-4.12-3.89v-8.17c0-2.78,1.19-3.89,4.12-3.89,1.74,0,2.85.48,3.41,1.51.32.56.48,1.51.48,2.38v4.92h-5.15v3.25c0,1.43.32,1.98,1.19,1.98.79,0,1.11-.4,1.11-1.51v-1.74h2.78l.08,1.27h0ZM153.81,32.25v-3.25c0-.95-.4-1.43-1.11-1.43s-1.19.63-1.19,1.74v2.93h2.3Z"/>
    <path class="cls-1" d="M159.13,25.83h2.78v.87c.87-.95,1.19-1.11,2.54-1.19v2.85h-.48c-1.27,0-1.9.71-1.9,2.14v10.55h-2.93v-15.22Z"/>
    <path class="cls-1" d="M166.74,25.83h2.85v.79c.71-.79,1.43-1.11,2.46-1.11,1.82,0,2.78,1.11,2.78,3.41v12.13h-2.93v-11.89c0-1.03-.32-1.51-1.03-1.51s-1.19.56-1.19,1.43v12.05h-2.93v-15.3Z"/>
    <path class="cls-1" d="M187.28,36.54c0,3.25-1.67,4.84-4.92,4.84-2.06,0-3.73-.71-4.44-2.06-.4-.71-.63-1.67-.63-2.78v-17.6h3.09v17.52c0,1.74.56,2.46,1.9,2.46s1.98-.71,1.98-2.46v-17.52h3.09l-.08,17.6h0Z"/>
    <path class="cls-1" d="M189.81,25.83h2.85v.79c.71-.79,1.43-1.11,2.46-1.11,1.82,0,2.78,1.11,2.78,3.41v12.13h-2.93v-11.89c0-1.03-.32-1.51-1.03-1.51s-1.19.56-1.19,1.43v12.05h-2.93v-15.3h0Z"/>
    <path class="cls-1" d="M200.44,18.93h2.93v2.78h-2.93v-2.78ZM200.44,25.83h2.93v15.22h-2.93v-15.22Z"/>
    <path class="cls-1" d="M208.69,25.83l1.11,7.22.08.63c.32,2.22.32,2.38.63,4.2.24-1.27.4-2.22.48-2.85l.08-.63.16-.63.08-.63,1.19-7.22h2.93l-3.17,15.22h-3.49l-3.17-15.22h3.09v-.08h0Z"/>
    <path class="cls-1" d="M225.42,37.57c0,1.11-.16,1.9-.4,2.38-.48,1.03-1.67,1.51-3.49,1.51-2.93,0-4.12-1.11-4.12-3.89v-8.17c0-2.78,1.19-3.89,4.12-3.89,1.74,0,2.85.48,3.41,1.51.32.56.48,1.51.48,2.38v4.92h-5.15v3.25c0,1.43.32,1.98,1.19,1.98.79,0,1.11-.4,1.11-1.51v-1.74h2.78l.08,1.27h0ZM222.64,32.25v-3.25c0-.95-.4-1.43-1.11-1.43s-1.19.63-1.19,1.74v2.93h2.3Z"/>
    <path class="cls-1" d="M227.95,25.83h2.78v.87c.87-.95,1.19-1.11,2.54-1.19v2.85h-.48c-1.27,0-1.9.71-1.9,2.14v10.55h-2.93v-15.22Z"/>
    <path class="cls-1" d="M240.4,29.08c0-1.11-.32-1.67-1.03-1.67-.63,0-1.03.56-1.03,1.67s.32,1.67,1.59,2.78c2.78,2.3,3.17,3.09,3.17,5.39,0,3.01-1.11,4.2-4.04,4.2-1.74,0-3.01-.48-3.41-1.35-.24-.48-.4-1.27-.4-2.06v-1.74h2.78v1.43c0,1.35.32,1.82,1.11,1.82s1.11-.63,1.11-2.06c0-1.35-.4-1.98-1.74-3.17-2.62-2.14-3.09-2.93-3.09-4.92,0-1.27.4-2.38,1.03-3.01s1.43-.87,2.85-.87c2.62,0,3.65.95,3.65,3.17v1.9h-2.62v-1.51h.08Z"/>
    <path class="cls-1" d="M245.48,18.93h2.93v2.78h-2.93v-2.78ZM245.48,25.83h2.93v15.22h-2.93v-15.22Z"/>
    <path class="cls-1" d="M250.63,25.83h1.35v-3.01l2.93-1.11v4.12h1.74v2.14h-1.74v9.59c0,1.11.32,1.51,1.27,1.51.16,0,.24,0,.56-.08v2.06h-2.06c-1.98,0-2.62-.79-2.62-2.93v-10.15h-1.35v-2.14h-.08Z"/>
    <path class="cls-1" d="M264.19,40.18c-.79.95-1.43,1.27-2.46,1.27-1.11,0-1.98-.4-2.38-1.11-.32-.56-.48-1.59-.48-2.85,0-3.41.32-4.44,1.67-5.23.63-.4,1.43-.56,2.46-.56h1.11v-2.46c0-1.11-.4-1.59-1.11-1.59-.63,0-1.03.48-1.03,1.35v1.11h-2.93v-.71c0-2.7,1.19-3.89,4.12-3.89,2.7,0,3.81,1.11,3.81,3.89v11.74h-2.85v-.95h.08ZM259.83,18.93h2.54v2.7h-2.54v-2.7ZM264.19,33.6c-2.22.08-2.46.4-2.46,3.57,0,1.82.24,2.3,1.27,2.3.79,0,1.19-.48,1.19-1.51v-4.36ZM263.72,18.93h2.62v2.7h-2.62v-2.7Z"/>
    <path class="cls-1" d="M269.34,25.83h1.35v-3.01l2.93-1.11v4.12h1.74v2.14h-1.74v9.59c0,1.11.32,1.51,1.27,1.51.16,0,.24,0,.56-.08v2.06h-2.06c-1.98,0-2.62-.79-2.62-2.93v-10.15h-1.43v-2.14Z"/>
    <path class="cls-1" d="M282.9,18.93h2.93v2.78h-2.93v-2.78ZM282.9,25.83h2.93v15.22h-2.93v-15.22Z"/>
    <path class="cls-1" d="M288.38,25.83h2.85v.79c.71-.79,1.43-1.11,2.46-1.11,1.82,0,2.78,1.11,2.78,3.41v12.13h-2.93v-11.89c0-1.03-.32-1.51-1.03-1.51s-1.19.56-1.19,1.43v12.05h-2.93v-15.3Z"/>
    <path class="cls-1" d="M304.39,18.93h3.09v9.28h3.81v-9.28h3.09v22.2h-3.09v-10.47h-3.81v10.39h-3.09v-22.12Z"/>
    <path class="cls-1" d="M322.07,40.18c-.79.95-1.43,1.27-2.46,1.27-1.11,0-1.98-.4-2.38-1.11-.32-.56-.48-1.59-.48-2.85,0-3.41.32-4.44,1.67-5.23.63-.4,1.43-.56,2.46-.56h1.11v-2.46c0-1.11-.4-1.59-1.11-1.59-.63,0-1.03.48-1.03,1.35v1.11h-2.93v-.71c0-2.7,1.19-3.89,4.12-3.89,2.7,0,3.81,1.11,3.81,3.89v11.74h-2.85v-.95h.08ZM322,33.6c-2.22.08-2.46.4-2.46,3.57,0,1.82.24,2.3,1.27,2.3.79,0,1.19-.48,1.19-1.51v-4.36Z"/>
    <path class="cls-1" d="M332.86,40.26c-.71.87-1.51,1.27-2.54,1.27-1.9,0-2.85-1.11-2.85-3.41v-9.28c0-2.3.95-3.41,2.93-3.41,1.11,0,1.67.32,2.54,1.27v-.87h2.78v17.29c0,2.62-1.03,3.65-3.96,3.65s-3.96-.87-3.96-3.49v-.71h2.85v.79c0,1.03.32,1.51,1.03,1.51s1.11-.48,1.11-1.51v-3.09s.08,0,.08,0ZM332.86,29.64c0-1.35-.4-1.98-1.27-1.98s-1.19.63-1.19,1.98v7.93c0,1.43.4,1.98,1.27,1.98s1.19-.63,1.19-1.98v-7.93Z"/>
    <path class="cls-1" d="M346.34,37.57c0,1.11-.16,1.9-.4,2.38-.48,1.03-1.67,1.51-3.49,1.51-2.93,0-4.12-1.11-4.12-3.89v-8.17c0-2.78,1.19-3.89,4.12-3.89,1.74,0,2.85.48,3.41,1.51.32.56.48,1.51.48,2.38v4.92h-5.15v3.25c0,1.43.32,1.98,1.19,1.98.79,0,1.11-.4,1.11-1.51v-1.74h2.78v1.27h.08ZM343.56,32.25v-3.25c0-.95-.4-1.43-1.11-1.43-.79,0-1.19.63-1.19,1.74v2.93h2.3Z"/>
    <path class="cls-1" d="M348.88,25.83h2.85v.79c.71-.79,1.43-1.11,2.46-1.11,1.82,0,2.78,1.11,2.78,3.41v12.13h-2.93v-11.89c0-1.03-.32-1.51-1.03-1.51s-1.19.56-1.19,1.43v12.05h-2.93v-15.3Z"/>
  </g>
  <path class="cls-2" d="M125.51,13.62v16.97c0,12.29-9.99,22.28-22.28,22.28s-22.28-9.99-22.28-22.28V13.54c.63-.87,1.35-1.74,2.14-2.54v19.59c0,11.1,8.96,20.06,20.06,20.06s20.06-8.96,20.06-20.06V11c.87.79,1.59,1.67,2.3,2.62Z"/>
  <path class="cls-2" d="M86.65,30.59V7.99c.71-.56,1.43-1.03,2.22-1.51v24.11c0,7.93,6.42,14.27,14.35,14.27s14.35-6.42,14.35-14.27V6.48c.79.48,1.51.95,2.22,1.51v22.6c0,9.12-7.45,16.57-16.57,16.57s-16.57-7.45-16.57-16.57Z"/>
  <path class="cls-2" d="M129,30.59v-10.94c1.43,3.41,2.22,7.06,2.22,11.02,0,15.46-12.53,27.99-27.99,27.99s-28.07-12.61-28.07-28.07c0-3.96.79-7.69,2.22-11.02v11.02c0,14.19,11.58,25.77,25.77,25.77s25.77-11.5,25.85-25.77Z"/>
  <path class="cls-1" d="M103.3,19.57c-6.03,0-10.94,4.92-10.94,10.94s4.92,10.94,10.94,10.94,10.94-4.92,10.94-10.94-5-10.94-10.94-10.94ZM99.34,26.23c-2.3,2.62-2.22,5.07-3.41,4.44s-1.9-3.65.95-6.82c2.85-3.17,5.71-2.22,6.5-1.19.79,1.27-1.67.95-4.04,3.57Z"/>
  <g>
    <path class="cls-3" d="M15.99,7.28c2.89,0,5.79,0,8.68,0,.35,0,.43.09.43.43-.02,2.51-.02,5.02,0,7.54,0,.39-.12.44-.46.44-3.6-.01-7.2,0-10.8-.02-.4,0-.52.13-.59.49-.23,1.12-.5,2.23-.75,3.34-.03.12-.13.27.01.36.11.06.26.04.38-.01,4.78-2.02,12.45.29,14.55,8.04,1.22,4.52.53,8.75-2.39,12.47-2.39,3.05-5.58,4.79-9.44,5.2-4.49.48-8.38-.89-11.56-4.09-2.35-2.36-3.65-5.25-3.93-8.57-.03-.34-.24-.78,0-1,.2-.17.65-.07.98-.07,2.53-.01,5.05-.02,7.58-.04.34,0,.43.09.44.43.07,2.29,1.54,4.3,3.59,4.86,2.63.72,5.88-.49,6.26-4.42.13-1.37-.1-2.67-.96-3.79-1.16-1.51-2.75-2.03-4.59-1.87-1.41.12-2.65.61-3.57,1.74-.11.14-.24.14-.39.14-2.66,0-5.32,0-7.98,0-.31,0-.32-.08-.25-.35,1.29-4.82,2.57-9.65,3.85-14.47.57-2.14,1.15-4.27,1.7-6.41.08-.3.2-.36.47-.36,2.91,0,5.82,0,8.73,0Z"/>
    <path class="cls-3" d="M36.66,9.3c.99-.69,2.1-1.16,3.22-1.57,2.49-.93,5.07-1.34,7.72-1.22,3.23.14,6.26.99,9.07,2.62.05.03.09.07.14.1-.09.16-.08.34-.08.51.04,4.06-.07,8.12.06,12.17-.05-.1-.12-.2-.16-.3-1.93-5.07-7.79-7.88-12.98-6.18-3.36,1.1-5.61,3.38-6.87,6.66-.16-.24.02-.48.02-.72-.01-3.88,0-7.75-.01-11.63,0-.15.06-.33-.12-.44Z"/>
    <path class="cls-3" d="M58.57,10.37c.79.58,1.55,1.2,2.21,1.92,0,.21-.01.41-.01.62,0,4.36,0,8.72,0,13.08,0,.66-.02,1.32-.12,1.97-.53,3.63-2.16,6.68-5.02,8.99-3.46,2.8-7.42,3.78-11.79,2.89-3.08-.63-5.66-2.19-7.71-4.59-2.23-2.61-3.37-5.63-3.39-9.06-.02-4.4,0-8.81,0-13.21,0-.2-.02-.41-.04-.61.71-.74,1.48-1.42,2.33-2,0,5.09,0,10.19,0,15.28,0,.6,0,1.2.07,1.8.36,3.07,1.72,5.62,4.06,7.61,2.53,2.15,5.48,3.07,8.81,2.74,2.39-.24,4.52-1.13,6.33-2.69,2.75-2.38,4.18-5.41,4.18-9.08,0-5.05,0-10.1,0-15.15,0-.16-.08-.36.09-.49Z"/>
    <path class="cls-3" d="M28.66,18.37c.56-1.46,1.37-2.78,2.32-4.02.08.24,0,.48,0,.72,0,3.6,0,7.19.01,10.79,0,.94.08,1.87.23,2.8.64,3.86,2.47,7.07,5.46,9.56,3.74,3.12,8.09,4.22,12.87,3.41,3.78-.64,6.92-2.53,9.36-5.49,2.4-2.91,3.58-6.29,3.61-10.05.03-3.92.01-7.84.02-11.76,1,1.27,1.83,2.63,2.37,4.16-.16.14-.09.33-.09.5,0,2.19,0,4.38,0,6.57,0,1.14-.06,2.28-.25,3.41-.75,4.5-2.86,8.22-6.39,11.1-4.29,3.5-9.23,4.75-14.67,3.79-4.9-.87-8.74-3.48-11.6-7.53-.51-.72-.88-1.52-1.38-2.24.01-.88.13-1.75.11-2.63-.06-2.59-.65-5.03-1.84-7.33-.05-.1-.09-.22-.13-.32.06-1.81.05-3.62,0-5.43Z"/>
    <path class="cls-4" d="M62.53,14.32c0,3.92.01,7.84-.02,11.76-.03,3.77-1.21,7.15-3.61,10.05-2.44,2.96-5.58,4.85-9.36,5.49-4.78.81-9.13-.29-12.87-3.41-2.99-2.49-4.82-5.7-5.46-9.56-.15-.93-.23-1.86-.23-2.8-.01-3.6,0-7.19-.01-10.79,0-.24.09-.48,0-.72.5-.73,1.08-1.38,1.72-1.99.01.2.04.41.04.61,0,4.4-.02,8.81,0,13.21.02,3.43,1.16,6.45,3.39,9.06,2.05,2.4,4.63,3.96,7.71,4.59,4.36.9,8.32-.09,11.79-2.89,2.86-2.32,4.49-5.36,5.02-8.99.1-.65.12-1.31.12-1.97-.01-4.36,0-8.72,0-13.08,0-.21,0-.41.01-.62.62.58,1.2,1.2,1.66,1.93.03.04.06.08.09.12v-.02Z"/>
    <path class="cls-4" d="M58.57,10.37c-.17.14-.09.33-.09.49,0,5.05,0,10.1,0,15.15,0,3.67-1.42,6.7-4.18,9.08-1.81,1.56-3.94,2.45-6.33,2.69-3.33.33-6.28-.59-8.81-2.74-2.34-1.99-3.7-4.54-4.06-7.61-.07-.6-.07-1.2-.07-1.8,0-5.09,0-10.19,0-15.28.51-.4,1.03-.8,1.63-1.06.18.11.12.29.12.44,0,3.88,0,7.75.01,11.63,0,.24-.18.48-.02.72,0,.13,0,.26,0,.4.04,1.67-.12,3.35.1,5.01.75,5.72,6.38,9.66,12,8.42,4.22-.93,7.4-4.45,7.84-8.73.18-1.75.05-3.52.06-5.28-.13-4.06-.02-8.12-.06-12.17,0-.18-.01-.35.08-.51.64.3,1.21.72,1.77,1.14Z"/>
    <path class="cls-4" d="M30.52,34.08c.5.72.87,1.52,1.38,2.24,2.87,4.06,6.7,6.67,11.6,7.53,5.44.96,10.37-.29,14.67-3.79,3.53-2.88,5.64-6.61,6.39-11.1.19-1.13.25-2.27.25-3.41,0-2.19,0-4.38,0-6.57,0-.17-.07-.36.09-.5.53,1.02.84,2.12,1.07,3.24,1.34,6.44-.06,12.22-4.34,17.21-3.05,3.56-6.96,5.71-11.6,6.45-5.7.91-10.86-.42-15.46-3.91-1.74-1.33-3.19-2.95-4.4-4.77-.15-.23-.17-.43-.1-.69.17-.63.3-1.28.44-1.92Z"/>
    <path class="cls-3" d="M34.95,55.15c0,1.39-.01,2.79,0,4.18,0,.34-.09.42-.41.4-.56-.03-1.12-.03-1.67,0-.35.02-.41-.11-.4-.42.02-1,0-2,.01-2.99,0-.28-.05-.4-.36-.38-.42.03-.85.02-1.28,0-.25-.01-.32.07-.32.32.01,1.04,0,2.08.01,3.13,0,.28-.07.35-.35.34-.6-.02-1.2-.02-1.81,0-.24,0-.33-.04-.33-.31,0-2.88,0-5.75,0-8.63,0-.23.07-.3.3-.29.6.02,1.2.02,1.81,0,.28,0,.38.06.37.36-.02.94,0,1.88-.01,2.82,0,.3.07.42.39.39.41-.03.82-.02,1.23,0,.28.02.34-.09.34-.35-.01-.94.01-1.88-.01-2.82-.01-.35.1-.42.42-.4.56.03,1.12.03,1.67,0,.3-.01.4.07.39.38-.02,1.42,0,2.85,0,4.27Z"/>
    <path class="cls-3" d="M42.38,55.13c.69.23.96.72,1.13,1.29.33,1.09.65,2.18.98,3.31-.82,0-1.58,0-2.34,0-.24,0-.25-.14-.29-.3-.21-.79-.42-1.58-.64-2.37-.1-.37-.25-.73-.65-.89-.41-.16-.53-.08-.53.34,0,.97,0,1.94,0,2.91,0,.24-.05.33-.31.32-.62-.02-1.23-.02-1.85,0-.26,0-.32-.07-.32-.32,0-2.86,0-5.72,0-8.59,0-.18-.04-.35.25-.34,1.41.04,2.82-.08,4.22.07,1.76.19,2.72,2.03,1.85,3.53-.26.45-.6.68-1.53,1.04ZM39.96,53.28q0,1.17.87,1.07s.06,0,.09-.01c.4-.11.69-.35.78-.75.09-.4.02-.79-.31-1.09-.38-.34-.87-.33-1.29-.22-.32.09-.07.51-.13.78-.02.07,0,.15,0,.22Z"/>
    <path class="cls-3" d="M26.22,59.73c-.76,0-1.52,0-2.28,0-.2,0-.25-.1-.28-.25-.11-.47-.25-.93-.34-1.41-.05-.23-.14-.32-.38-.31-.7.01-1.41.02-2.11,0-.26,0-.36.1-.42.33-.13.47-.29.92-.42,1.39-.04.16-.08.26-.28.26-.7,0-1.4,0-2.15,0,.42-1.27.83-2.5,1.24-3.73.57-1.72,1.15-3.44,1.71-5.16.08-.25.18-.34.46-.33.7.03,1.41.01,2.11,0,.19,0,.28.04.34.24.93,2.94,1.87,5.88,2.81,8.82.01.04,0,.09,0,.17ZM21.98,52.44s-.05,0-.08,0c-.31,1.13-.63,2.27-.94,3.4-.04.14.02.18.15.18.48,0,.97,0,1.45,0,.15,0,.21-.04.17-.21-.26-1.12-.51-2.25-.76-3.38Z"/>
    <path class="cls-3" d="M46.62,55.1c0-1.41,0-2.82,0-4.23,0-.28.04-.38.35-.37,1.64.02,3.29.02,4.93,0,.27,0,.36.05.34.34-.03.38-.02.76,0,1.14.02.27-.05.35-.33.34-.84-.02-1.67,0-2.51-.01-.27,0-.4.04-.38.35.03.35.03.71,0,1.06-.02.3.06.41.38.4.79-.02,1.59,0,2.38-.01.26,0,.33.07.32.32-.02.4-.02.79,0,1.19.01.24-.07.3-.3.3-.79-.01-1.59,0-2.38-.01-.29,0-.42.05-.4.38.03.44.02.88,0,1.32-.01.25.08.32.33.32.91-.01,1.82,0,2.73-.01.28,0,.35.07.34.34-.02.39-.02.79,0,1.19,0,.22-.04.3-.29.3-1.73-.01-3.46-.02-5.2,0-.31,0-.32-.13-.32-.37,0-1.42,0-2.85,0-4.27Z"/>
    <path class="cls-3" d="M11.77,57.69c.13.04.23.07.32.1.75.23,1.29-.09,1.42-.85.04-.22.05-.44.05-.66,0-1.81,0-3.61,0-5.42,0-.27.04-.39.35-.37.6.03,1.2.02,1.81,0,.22,0,.3.04.3.29-.01,2.06-.02,4.11-.01,6.17,0,2.16-1.32,3.27-3.56,2.84-.99-.19-.77-.03-.74-.96.01-.37.04-.73.06-1.15Z"/>
    <path class="cls-4" d="M28.66,18.37c.05,1.81.06,3.62,0,5.43-.38-.56-.75-1.11-1.13-1.67-.05-.08-.07-.15-.04-.24.31-1.2.6-2.41,1.18-3.52Z"/>
  </g>
</svg>